# xmcd CD database file
# Copyright (C) 1996 Ti Kan
#
# Track frame offsets:
# 	183
# 	8583
# 	18668
# 	29490
# 	39333
# 	50033
# 	59458
# 	72033
# 	79683
# 	92483
# 	104883
# 	115233
# 	126708
# 	135933
#
# Disc length: 1971 seconds
#
# Revision: 1
# Processed by: cddbd v1.4b41PL1 Copyright (c) Steve Scherf et al.
# Submitted via: DiscPlay 3.4.1
#
DISCID=be07b10e
DTITLE=Johnny Cash - Gold Collection
DYEAR=1900
DGENRE=
TTITLE0=The Wreck of The Old '97
TTITLE1=Ballad of a Teenage Queen
TTITLE2=I Heard That Lonesome Whistle
TTITLE3=Rock Island Line
TTITLE4=Train of Love
TTITLE5=Down the Street to 301
TTITLE6=Give My Love To Rose
TTITLE7=Come In Stranger
TTITLE8=Folsom Prison Blues
TTITLE9=I Walk The Line
TTITLE10=The Ways of a Woman in Love
TTITLE11=Big River
TTITLE12=Blue Train
TTITLE13=Doin' My Time
EXTD=
EXTT0=
EXTT1=
EXTT2=
EXTT3=
EXTT4=
EXTT5=
EXTT6=
EXTT7=
EXTT8=
EXTT9=
EXTT10=
EXTT11=
EXTT12=
EXTT13=
PLAYORDER=
